<svg id="visual" viewBox="0 0 900 600" width="900" height="600" xmlns="http://www.w3.org/2000/svg" xmlns:xlink="http://www.w3.org/1999/xlink" version="1.1"><rect x="0" y="0" width="900" height="600" fill="#ffffff"></rect><path d="M0 505L37.5 489.5C75 474 150 443 225 443.2C300 443.3 375 474.7 450 487.7C525 500.7 600 495.3 675 498.2C750 501 825 512 862.5 517.5L900 523L900 601L862.5 601C825 601 750 601 675 601C600 601 525 601 450 601C375 601 300 601 225 601C150 601 75 601 37.5 601L0 601Z" fill="#0442b8" stroke-linecap="round" stroke-linejoin="miter"></path></svg>