<svg id="visual" viewBox="0 0 960 300" width="960" height="300" xmlns="http://www.w3.org/2000/svg" xmlns:xlink="http://www.w3.org/1999/xlink" version="1.1"><rect x="0" y="0" width="960" height="300" fill="#FFFFFF"></rect><path d="M0 193L22.8 194.5C45.7 196 91.3 199 137 207.5C182.7 216 228.3 230 274 233.8C319.7 237.7 365.3 231.3 411.2 221.8C457 212.3 503 199.7 548.8 200.8C594.7 202 640.3 217 686 222.5C731.7 228 777.3 224 823 217C868.7 210 914.3 200 937.2 195L960 190L960 0L937.2 0C914.3 0 868.7 0 823 0C777.3 0 731.7 0 686 0C640.3 0 594.7 0 548.8 0C503 0 457 0 411.2 0C365.3 0 319.7 0 274 0C228.3 0 182.7 0 137 0C91.3 0 45.7 0 22.8 0L0 0Z" fill="#022577"></path><path d="M0 180L22.8 171.8C45.7 163.7 91.3 147.3 137 140.3C182.7 133.3 228.3 135.7 274 139C319.7 142.3 365.3 146.7 411.2 152.5C457 158.3 503 165.7 548.8 164.3C594.7 163 640.3 153 686 152.5C731.7 152 777.3 161 823 160.5C868.7 160 914.3 150 937.2 145L960 140L960 0L937.2 0C914.3 0 868.7 0 823 0C777.3 0 731.7 0 686 0C640.3 0 594.7 0 548.8 0C503 0 457 0 411.2 0C365.3 0 319.7 0 274 0C228.3 0 182.7 0 137 0C91.3 0 45.7 0 22.8 0L0 0Z" fill="#042e8c"></path><path d="M0 126L22.8 124.3C45.7 122.7 91.3 119.3 137 119.7C182.7 120 228.3 124 274 121.7C319.7 119.3 365.3 110.7 411.2 112C457 113.3 503 124.7 548.8 121.7C594.7 118.7 640.3 101.3 686 93.5C731.7 85.7 777.3 87.3 823 87.7C868.7 88 914.3 87 937.2 86.5L960 86L960 0L937.2 0C914.3 0 868.7 0 823 0C777.3 0 731.7 0 686 0C640.3 0 594.7 0 548.8 0C503 0 457 0 411.2 0C365.3 0 319.7 0 274 0C228.3 0 182.7 0 137 0C91.3 0 45.7 0 22.8 0L0 0Z" fill="#0438a2"></path><path d="M0 30L22.8 37.5C45.7 45 91.3 60 137 67.3C182.7 74.7 228.3 74.3 274 75.2C319.7 76 365.3 78 411.2 77.5C457 77 503 74 548.8 75.2C594.7 76.3 640.3 81.7 686 78.5C731.7 75.3 777.3 63.7 823 57.8C868.7 52 914.3 52 937.2 52L960 52L960 0L937.2 0C914.3 0 868.7 0 823 0C777.3 0 731.7 0 686 0C640.3 0 594.7 0 548.8 0C503 0 457 0 411.2 0C365.3 0 319.7 0 274 0C228.3 0 182.7 0 137 0C91.3 0 45.7 0 22.8 0L0 0Z" fill="#0442b8"></path></svg>