<svg id="visual" viewBox="0 0 900 600" width="900" height="600" xmlns="http://www.w3.org/2000/svg" xmlns:xlink="http://www.w3.org/1999/xlink" version="1.1"><rect x="0" y="0" width="900" height="600" fill="#ffffff"></rect><path d="M0 118L30 133C60 148 120 178 180 186.3C240 194.7 300 181.3 360 180.8C420 180.3 480 192.7 540 196.2C600 199.7 660 194.3 720 182C780 169.7 840 150.3 870 140.7L900 131L900 0L870 0C840 0 780 0 720 0C660 0 600 0 540 0C480 0 420 0 360 0C300 0 240 0 180 0C120 0 60 0 30 0L0 0Z" fill="#0442b8" stroke-linecap="round" stroke-linejoin="miter"></path></svg>